# Blender v2.93.5 OBJ File: 'res_stone.blend'
# www.blender.org
mtllib res_stone.mtl
o Cone
v -1.403215 2.395502 -1.403215
v 1.403215 2.395502 -1.403215
v 1.403215 2.395502 1.403215
v -1.403215 2.395502 1.403215
v 0.000000 4.655466 0.000000
vt 0.705231 0.154936
vt 0.569091 0.927728
vt 0.438992 0.175429
vt 0.488132 0.171538
vt 0.368215 0.957970
vt 0.243453 0.176729
vt 0.292289 0.183796
vt 0.160509 0.945949
vt 0.028150 0.176035
vt 0.957121 0.168048
vt 0.784208 0.937925
vt 0.637559 0.177128
vn 0.0000 0.5275 -0.8496
vn 0.8496 0.5275 0.0000
vn -0.0000 0.5275 0.8496
vn -0.8496 0.5275 0.0000
usemtl Material.001
s off
f 1/1/1 5/2/1 2/3/1
f 2/4/2 5/5/2 3/6/2
f 3/7/3 5/8/3 4/9/3
f 4/10/4 5/11/4 1/12/4
o Cone.001
v -1.403215 2.390993 -1.403215
v 1.403215 2.390993 -1.403215
v 1.403215 2.390993 1.403215
v -1.403215 2.390993 1.403215
v 0.000000 0.551462 0.000000
vt 0.696694 0.184760
vt 0.439711 0.185415
vt 0.566677 0.907885
vt 0.499956 0.184982
vt 0.234747 0.185208
vt 0.363236 0.911411
vt 0.280952 0.191455
vt 0.032393 0.191455
vt 0.161670 0.899411
vt 0.917583 0.190549
vt 0.660054 0.187237
vt 0.788109 0.908099
vn 0.0000 -0.6065 -0.7951
vn 0.7951 -0.6065 0.0000
vn -0.0000 -0.6065 0.7951
vn -0.7951 -0.6065 0.0000
usemtl Material.002
s off
f 6/13/5 7/14/5 10/15/5
f 7/16/6 8/17/6 10/18/6
f 8/19/7 9/20/7 10/21/7
f 9/22/8 6/23/8 10/24/8
